<mxfile host="app.diagrams.net" modified="2022-01-26T10:42:11.324Z" agent="5.0 (Windows NT 10.0; Win64; x64) AppleWebKit/537.36 (KHTML, like Gecko) Chrome/97.0.4692.71 Safari/537.36" etag="c6u0qx-uEstDHwAYht43" version="16.4.6" type="github" pages="3">
  <diagram id="wf9bT86g8tjJ022RB1LM" name="Technical_vs_Organizational">
    <mxGraphModel dx="1422" dy="914" grid="1" gridSize="10" guides="1" tooltips="1" connect="1" arrows="1" fold="1" page="1" pageScale="1" pageWidth="1169" pageHeight="827" math="0" shadow="1">
      <root>
        <mxCell id="0" />
        <mxCell id="1" parent="0" />
        <mxCell id="5WbvhAvkifWwxOaq2flP-1" value="" style="rounded=0;whiteSpace=wrap;html=1;strokeWidth=3;strokeColor=#1AA3DB;shadow=0;fillColor=#D2ECFA;" parent="1" vertex="1">
          <mxGeometry x="220" y="280" width="730" height="170" as="geometry" />
        </mxCell>
        <mxCell id="5WbvhAvkifWwxOaq2flP-6" value="" style="shape=manualInput;whiteSpace=wrap;html=1;strokeColor=#1AA3DB;strokeWidth=3;rotation=-180;size=93;flipH=1;fillColor=#5B9BD5;" parent="1" vertex="1">
          <mxGeometry x="220" y="280" width="730" height="130" as="geometry" />
        </mxCell>
        <mxCell id="5WbvhAvkifWwxOaq2flP-7" value="&lt;span style=&quot;font-family: &amp;quot;droid sans&amp;quot;; font-size: 22px; text-align: left;&quot;&gt;Organizational Rules / Legal Contract&lt;/span&gt;" style="text;html=1;strokeColor=none;fillColor=none;align=center;verticalAlign=middle;whiteSpace=wrap;rounded=0;shadow=1;sketch=0;fontStyle=1;fontSize=22;" parent="1" vertex="1">
          <mxGeometry x="220" y="414" width="420" height="30" as="geometry" />
        </mxCell>
        <mxCell id="5WbvhAvkifWwxOaq2flP-8" value="&lt;span style=&quot;font-family: &amp;quot;droid sans&amp;quot;; font-size: 22px; text-align: left;&quot;&gt;Technical Enforcement&lt;/span&gt;&lt;br style=&quot;font-size: 22px;&quot;&gt;" style="text;html=1;strokeColor=none;fillColor=none;align=center;verticalAlign=middle;whiteSpace=wrap;rounded=0;shadow=1;sketch=0;fontStyle=1;fontSize=22;fontColor=#FFFFFF;" parent="1" vertex="1">
          <mxGeometry x="690" y="290" width="260" height="30" as="geometry" />
        </mxCell>
        <mxCell id="5WbvhAvkifWwxOaq2flP-9" value="" style="endArrow=classic;html=1;rounded=0;fontSize=22;fontColor=#FFFFFF;strokeColor=#13A3DB;strokeWidth=6;endSize=5;verticalAlign=middle;" parent="1" edge="1">
          <mxGeometry width="50" height="50" relative="1" as="geometry">
            <mxPoint x="220" y="480" as="sourcePoint" />
            <mxPoint x="920" y="480" as="targetPoint" />
          </mxGeometry>
        </mxCell>
        <mxCell id="5WbvhAvkifWwxOaq2flP-10" value="t" style="text;html=1;strokeColor=none;fillColor=none;align=center;verticalAlign=middle;whiteSpace=wrap;rounded=0;shadow=1;sketch=0;fontSize=40;fontColor=#13A3DB;fontStyle=1" parent="1" vertex="1">
          <mxGeometry x="920" y="465" width="30" height="30" as="geometry" />
        </mxCell>
      </root>
    </mxGraphModel>
  </diagram>
  <diagram id="WorqjwTJEuE0stwa75Rf" name="UC-Definition">
    <mxGraphModel dx="1422" dy="914" grid="1" gridSize="10" guides="1" tooltips="1" connect="1" arrows="1" fold="1" page="1" pageScale="1" pageWidth="1169" pageHeight="827" math="0" shadow="1">
      <root>
        <mxCell id="nrzdQayzg8ylizpXZmys-0" />
        <mxCell id="nrzdQayzg8ylizpXZmys-1" parent="nrzdQayzg8ylizpXZmys-0" />
        <mxCell id="nrzdQayzg8ylizpXZmys-6" value="Usage&lt;br&gt;Control&lt;br style=&quot;font-size: 16px&quot;&gt;&lt;br style=&quot;font-size: 16px&quot;&gt;&lt;br style=&quot;font-size: 16px&quot;&gt;&lt;br style=&quot;font-size: 16px&quot;&gt;&lt;br style=&quot;font-size: 16px&quot;&gt;&lt;br style=&quot;font-size: 16px&quot;&gt;&lt;br&gt;" style="ellipse;whiteSpace=wrap;html=1;aspect=fixed;fillColor=#1C75AD;fontColor=#FFFFFF;fontStyle=1;fontSize=16;" parent="nrzdQayzg8ylizpXZmys-1" vertex="1">
          <mxGeometry x="700" y="290" width="220" height="220" as="geometry" />
        </mxCell>
        <mxCell id="nrzdQayzg8ylizpXZmys-3" value="Provisions" style="ellipse;whiteSpace=wrap;html=1;aspect=fixed;fillColor=#1C75AD;fontColor=#FFFFFF;fontStyle=1;fontSize=16;fontFamily=Helvetica;" parent="nrzdQayzg8ylizpXZmys-1" vertex="1">
          <mxGeometry x="200" y="330" width="140" height="140" as="geometry" />
        </mxCell>
        <mxCell id="nrzdQayzg8ylizpXZmys-4" value="Obligations" style="ellipse;whiteSpace=wrap;html=1;aspect=fixed;fillColor=#1C75AD;fontColor=#FFFFFF;fontStyle=1;fontSize=16;" parent="nrzdQayzg8ylizpXZmys-1" vertex="1">
          <mxGeometry x="450" y="330" width="140" height="140" as="geometry" />
        </mxCell>
        <mxCell id="nrzdQayzg8ylizpXZmys-5" value="Access&lt;br&gt;Control" style="ellipse;whiteSpace=wrap;html=1;aspect=fixed;fontSize=16;fontStyle=1;fontColor=#FFFFFF;fillColor=#5A99D3;strokeColor=#FFFFFF;" parent="nrzdQayzg8ylizpXZmys-1" vertex="1">
          <mxGeometry x="740" y="370" width="140" height="140" as="geometry" />
        </mxCell>
        <mxCell id="nrzdQayzg8ylizpXZmys-7" value="+" style="text;html=1;strokeColor=none;fillColor=none;align=center;verticalAlign=middle;whiteSpace=wrap;rounded=0;fontSize=130;fontColor=#B5CBE7;fontStyle=1" parent="nrzdQayzg8ylizpXZmys-1" vertex="1">
          <mxGeometry x="349" y="340" width="90" height="100" as="geometry" />
        </mxCell>
        <mxCell id="nrzdQayzg8ylizpXZmys-8" value="=" style="text;html=1;strokeColor=none;fillColor=none;align=center;verticalAlign=middle;whiteSpace=wrap;rounded=0;fontSize=130;fontColor=#B5CBE7;fontStyle=1" parent="nrzdQayzg8ylizpXZmys-1" vertex="1">
          <mxGeometry x="600" y="340" width="90" height="100" as="geometry" />
        </mxCell>
      </root>
    </mxGraphModel>
  </diagram>
  <diagram id="hzwTbf-mL0d4lsHdudsd" name="IDS-Contract">
    <mxGraphModel dx="1422" dy="914" grid="1" gridSize="10" guides="1" tooltips="1" connect="1" arrows="1" fold="1" page="1" pageScale="1" pageWidth="1169" pageHeight="827" math="0" shadow="0">
      <root>
        <mxCell id="iDH6CRqKhKxQR-qLBNiK-0" />
        <mxCell id="iDH6CRqKhKxQR-qLBNiK-1" parent="iDH6CRqKhKxQR-qLBNiK-0" />
        <mxCell id="iDH6CRqKhKxQR-qLBNiK-3" value="" style="rounded=1;whiteSpace=wrap;html=1;fontSize=130;fontColor=#B5CBE7;strokeColor=#1B71A7;fillColor=#1297D0;opacity=59;strokeWidth=4;perimeterSpacing=0;sketch=0;fillStyle=auto;shadow=0;glass=0;" parent="iDH6CRqKhKxQR-qLBNiK-1" vertex="1">
          <mxGeometry x="400" y="70" width="290" height="670" as="geometry" />
        </mxCell>
        <mxCell id="iDH6CRqKhKxQR-qLBNiK-4" value="" style="rounded=1;whiteSpace=wrap;html=1;fontSize=130;fontColor=#B5CBE7;strokeColor=#1B71A7;fillColor=#1297D0;opacity=59;strokeWidth=4;perimeterSpacing=0;sketch=0;fillStyle=auto;dashed=1;" parent="iDH6CRqKhKxQR-qLBNiK-1" vertex="1">
          <mxGeometry x="409.63" y="120" width="270.73" height="246" as="geometry" />
        </mxCell>
        <mxCell id="iDH6CRqKhKxQR-qLBNiK-5" value="" style="rounded=1;whiteSpace=wrap;html=1;fontSize=130;fontColor=#B5CBE7;strokeColor=#1C75AD;fillColor=#1297D0;opacity=59;strokeWidth=4;perimeterSpacing=0;sketch=0;fillStyle=auto;dashed=1;" parent="iDH6CRqKhKxQR-qLBNiK-1" vertex="1">
          <mxGeometry x="409.63" y="380" width="270.73" height="340" as="geometry" />
        </mxCell>
        <mxCell id="iDH6CRqKhKxQR-qLBNiK-6" value="" style="rounded=1;whiteSpace=wrap;html=1;fontSize=130;fontColor=#B5CBE7;strokeColor=#1C75AD;fillColor=#1297D0;opacity=59;strokeWidth=4;perimeterSpacing=0;sketch=0;fillStyle=auto;" parent="iDH6CRqKhKxQR-qLBNiK-1" vertex="1">
          <mxGeometry x="420.95000000000005" y="154" width="248.1" height="60" as="geometry" />
        </mxCell>
        <mxCell id="iDH6CRqKhKxQR-qLBNiK-7" value="" style="rounded=1;whiteSpace=wrap;html=1;fontSize=130;fontColor=#B5CBE7;strokeColor=#1C75AD;fillColor=#1297D0;opacity=59;strokeWidth=4;perimeterSpacing=0;sketch=0;fillStyle=auto;" parent="iDH6CRqKhKxQR-qLBNiK-1" vertex="1">
          <mxGeometry x="420.95000000000005" y="230" width="248.1" height="60" as="geometry" />
        </mxCell>
        <mxCell id="iDH6CRqKhKxQR-qLBNiK-8" value="" style="rounded=1;whiteSpace=wrap;html=1;fontSize=130;fontColor=#B5CBE7;strokeColor=#1C75AD;fillColor=#1297D0;opacity=59;strokeWidth=4;perimeterSpacing=0;sketch=0;fillStyle=auto;" parent="iDH6CRqKhKxQR-qLBNiK-1" vertex="1">
          <mxGeometry x="420.95" y="300" width="248.1" height="43" as="geometry" />
        </mxCell>
        <mxCell id="iDH6CRqKhKxQR-qLBNiK-9" value="" style="rounded=1;whiteSpace=wrap;html=1;fontSize=130;fontColor=#B5CBE7;strokeColor=#1C75AD;fillColor=#1297D0;opacity=59;strokeWidth=4;perimeterSpacing=0;sketch=0;fillStyle=auto;" parent="iDH6CRqKhKxQR-qLBNiK-1" vertex="1">
          <mxGeometry x="420.95" y="414" width="248.1" height="100" as="geometry" />
        </mxCell>
        <mxCell id="iDH6CRqKhKxQR-qLBNiK-10" value="" style="rounded=1;whiteSpace=wrap;html=1;fontSize=130;fontColor=#B5CBE7;strokeColor=#1C75AD;fillColor=#1297D0;opacity=59;strokeWidth=4;perimeterSpacing=0;sketch=0;fillStyle=auto;" parent="iDH6CRqKhKxQR-qLBNiK-1" vertex="1">
          <mxGeometry x="420.95" y="530" width="248.1" height="100" as="geometry" />
        </mxCell>
        <mxCell id="iDH6CRqKhKxQR-qLBNiK-11" value="" style="rounded=1;whiteSpace=wrap;html=1;fontSize=130;fontColor=#B5CBE7;strokeColor=#1C75AD;fillColor=#1297D0;opacity=59;strokeWidth=4;perimeterSpacing=0;sketch=0;fillStyle=auto;" parent="iDH6CRqKhKxQR-qLBNiK-1" vertex="1">
          <mxGeometry x="420.95" y="644" width="248.1" height="43" as="geometry" />
        </mxCell>
        <mxCell id="iDH6CRqKhKxQR-qLBNiK-12" value="IDS Contract" style="text;html=1;strokeColor=none;fillColor=none;align=center;verticalAlign=middle;whiteSpace=wrap;rounded=0;sketch=0;fillStyle=auto;fontSize=20;fontColor=#000000;opacity=59;fontStyle=1;fontFamily=Helvetica;" parent="iDH6CRqKhKxQR-qLBNiK-1" vertex="1">
          <mxGeometry x="465" y="83" width="160" height="26" as="geometry" />
        </mxCell>
        <mxCell id="opLR5BeQ2HHdn0nt2TJT-0" value="Contract Metadata" style="text;html=1;strokeColor=none;fillColor=none;align=center;verticalAlign=middle;whiteSpace=wrap;rounded=0;sketch=0;fillStyle=auto;fontSize=18;fontColor=#000000;opacity=59;fontStyle=1;fontFamily=Helvetica;" parent="iDH6CRqKhKxQR-qLBNiK-1" vertex="1">
          <mxGeometry x="451.5" y="125" width="185" height="26" as="geometry" />
        </mxCell>
        <mxCell id="opLR5BeQ2HHdn0nt2TJT-1" value="IDS Usage Control Policy" style="text;html=1;strokeColor=none;fillColor=none;align=center;verticalAlign=middle;whiteSpace=wrap;rounded=0;sketch=0;fillStyle=auto;fontSize=18;fontColor=#000000;opacity=59;fontStyle=1;fontFamily=Helvetica;" parent="iDH6CRqKhKxQR-qLBNiK-1" vertex="1">
          <mxGeometry x="436.75" y="386" width="218.5" height="26" as="geometry" />
        </mxCell>
        <mxCell id="opLR5BeQ2HHdn0nt2TJT-2" value="Contract Data" style="text;html=1;strokeColor=none;fillColor=none;align=center;verticalAlign=middle;whiteSpace=wrap;rounded=0;sketch=0;fillStyle=auto;fontSize=16;fontColor=#000000;opacity=59;fontStyle=1;fontFamily=Helvetica;" parent="iDH6CRqKhKxQR-qLBNiK-1" vertex="1">
          <mxGeometry x="451.5" y="162" width="185" height="13" as="geometry" />
        </mxCell>
        <mxCell id="opLR5BeQ2HHdn0nt2TJT-4" value="Contract Data" style="text;html=1;strokeColor=none;fillColor=none;align=center;verticalAlign=middle;whiteSpace=wrap;rounded=0;sketch=0;fillStyle=auto;fontSize=16;fontColor=#000000;opacity=59;fontStyle=1;fontFamily=Helvetica;" parent="iDH6CRqKhKxQR-qLBNiK-1" vertex="1">
          <mxGeometry x="450" y="240" width="185" height="13" as="geometry" />
        </mxCell>
        <mxCell id="opLR5BeQ2HHdn0nt2TJT-5" value="IDS Rule" style="text;html=1;strokeColor=none;fillColor=none;align=center;verticalAlign=middle;whiteSpace=wrap;rounded=0;sketch=0;fillStyle=auto;fontSize=16;fontColor=#000000;opacity=59;fontStyle=1;fontFamily=Helvetica;" parent="iDH6CRqKhKxQR-qLBNiK-1" vertex="1">
          <mxGeometry x="451.5" y="424" width="185" height="13" as="geometry" />
        </mxCell>
        <mxCell id="opLR5BeQ2HHdn0nt2TJT-6" value="IDS Rule" style="text;html=1;strokeColor=none;fillColor=none;align=center;verticalAlign=middle;whiteSpace=wrap;rounded=0;sketch=0;fillStyle=auto;fontSize=16;fontColor=#000000;opacity=59;fontStyle=1;fontFamily=Helvetica;" parent="iDH6CRqKhKxQR-qLBNiK-1" vertex="1">
          <mxGeometry x="451.5" y="540" width="185" height="13" as="geometry" />
        </mxCell>
        <mxCell id="opLR5BeQ2HHdn0nt2TJT-7" value="..." style="text;html=1;strokeColor=none;fillColor=none;align=center;verticalAlign=middle;whiteSpace=wrap;rounded=0;sketch=0;fillStyle=auto;fontSize=18;fontColor=#FFFFFF;opacity=59;fontStyle=1;fontFamily=Helvetica;" parent="iDH6CRqKhKxQR-qLBNiK-1" vertex="1">
          <mxGeometry x="452.5" y="188" width="185" height="3" as="geometry" />
        </mxCell>
        <mxCell id="opLR5BeQ2HHdn0nt2TJT-8" value="..." style="text;html=1;strokeColor=none;fillColor=none;align=center;verticalAlign=middle;whiteSpace=wrap;rounded=0;sketch=0;fillStyle=auto;fontSize=18;fontColor=#FFFFFF;opacity=59;fontStyle=1;fontFamily=Helvetica;" parent="iDH6CRqKhKxQR-qLBNiK-1" vertex="1">
          <mxGeometry x="452.3613" y="265" width="185" height="3" as="geometry" />
        </mxCell>
        <mxCell id="opLR5BeQ2HHdn0nt2TJT-9" value="..." style="text;html=1;strokeColor=none;fillColor=none;align=center;verticalAlign=middle;whiteSpace=wrap;rounded=0;sketch=0;fillStyle=auto;fontSize=18;fontColor=#FFFFFF;opacity=59;fontStyle=1;fontFamily=Helvetica;" parent="iDH6CRqKhKxQR-qLBNiK-1" vertex="1">
          <mxGeometry x="452.3613" y="315" width="185" height="3" as="geometry" />
        </mxCell>
        <mxCell id="opLR5BeQ2HHdn0nt2TJT-10" value="+ Permission&lt;br style=&quot;font-size: 16px;&quot;&gt;+ Prohibition&lt;br style=&quot;font-size: 16px;&quot;&gt;+ Obligation" style="text;html=1;strokeColor=none;fillColor=none;align=left;verticalAlign=middle;whiteSpace=wrap;rounded=0;sketch=0;fillStyle=auto;fontSize=16;fontColor=#FFFFFF;opacity=59;fontStyle=0;fontFamily=Helvetica;" parent="iDH6CRqKhKxQR-qLBNiK-1" vertex="1">
          <mxGeometry x="430" y="449" width="230" height="50" as="geometry" />
        </mxCell>
        <mxCell id="opLR5BeQ2HHdn0nt2TJT-11" value="+ Permission&lt;br style=&quot;font-size: 16px;&quot;&gt;+ Prohibition&lt;br style=&quot;font-size: 16px;&quot;&gt;+ Obligation" style="text;html=1;strokeColor=none;fillColor=none;align=left;verticalAlign=middle;whiteSpace=wrap;rounded=0;sketch=0;fillStyle=auto;fontSize=16;fontColor=#FFFFFF;opacity=59;fontStyle=0;fontFamily=Helvetica;" parent="iDH6CRqKhKxQR-qLBNiK-1" vertex="1">
          <mxGeometry x="429.9204" y="567" width="230" height="50" as="geometry" />
        </mxCell>
        <mxCell id="opLR5BeQ2HHdn0nt2TJT-13" value="..." style="text;html=1;strokeColor=none;fillColor=none;align=center;verticalAlign=middle;whiteSpace=wrap;rounded=0;sketch=0;fillStyle=auto;fontSize=18;fontColor=#FFFFFF;opacity=59;fontStyle=1;fontFamily=Helvetica;" parent="iDH6CRqKhKxQR-qLBNiK-1" vertex="1">
          <mxGeometry x="452.3613" y="660" width="185" height="3" as="geometry" />
        </mxCell>
      </root>
    </mxGraphModel>
  </diagram>
</mxfile>
